<?xml version="1.0" standalone="no"?>
<!DOCTYPE svg PUBLIC "-//W3C//DTD SVG 20010904//EN"
 "http://www.w3.org/TR/2001/REC-SVG-20010904/DTD/svg10.dtd">
<svg version="1.0" xmlns="http://www.w3.org/2000/svg"
 width="1280.000000pt" height="363.000000pt" viewBox="0 0 1280.000000 363.000000"
 preserveAspectRatio="xMidYMid meet">

<g transform="translate(0.000000,363.000000) scale(0.100000,-0.100000)"
fill="#000000" stroke="none">
<path d="M7000 2165 l0 -1065 123 0 124 0 6 248 c4 136 7 314 7 395 0 169 7
193 86 277 51 55 122 89 200 97 47 5 63 2 118 -26 77 -37 146 -110 172 -179
16 -41 18 -93 22 -429 l3 -383 125 0 124 0 0 378 c0 207 -5 409 -10 447 -26
176 -157 340 -330 412 -55 23 -83 27 -185 31 -127 4 -210 -10 -286 -48 -20
-11 -39 -16 -43 -13 -3 4 -6 213 -6 465 l0 458 -125 0 -125 0 0 -1065z"/>
<path d="M10808 2688 c4 -1034 6 -1086 30 -1151 61 -166 159 -282 298 -354
110 -58 176 -73 309 -73 129 0 198 15 302 66 133 66 240 188 301 343 24 61 26
78 26 221 0 149 -1 158 -30 231 -63 157 -166 270 -307 339 -112 54 -164 63
-326 58 -142 -5 -199 -20 -293 -78 -18 -11 -39 -20 -45 -20 -10 0 -13 102 -13
475 l0 475 -127 0 -128 0 3 -532z m741 -587 c187 -58 313 -262 268 -434 -31
-116 -117 -219 -227 -271 -84 -39 -183 -42 -273 -7 -78 31 -176 122 -217 203
-26 54 -30 71 -30 147 0 106 25 165 102 247 114 121 238 158 377 115z"/>
<path d="M8520 2165 l0 -1045 125 0 125 0 0 1045 0 1045 -125 0 -125 0 0
-1045z"/>
<path d="M5815 2365 c-173 -47 -319 -161 -399 -314 -68 -130 -66 -101 -66
-995 l0 -806 125 0 125 0 0 478 c0 263 2 481 5 484 3 3 38 -12 78 -33 100 -52
171 -69 293 -69 134 0 191 12 294 61 114 55 228 168 282 279 129 266 73 576
-140 771 -77 70 -196 132 -286 148 -81 15 -250 13 -311 -4z m241 -249 c116
-31 214 -111 272 -221 24 -44 27 -61 27 -150 0 -91 -3 -105 -29 -154 -15 -30
-52 -79 -82 -108 -115 -116 -268 -150 -398 -90 -159 73 -255 222 -244 378 13
182 191 353 373 358 17 0 53 -5 81 -13z"/>
<path d="M1194 2355 c-214 -58 -385 -226 -438 -432 -21 -82 -21 -275 0 -357
53 -205 226 -377 434 -431 87 -23 263 -23 350 0 193 50 356 202 426 397 43
119 35 324 -16 457 -17 42 -30 79 -30 84 0 4 14 7 30 7 l30 0 0 145 0 145
-367 -1 c-278 0 -380 -4 -419 -14z m316 -277 c111 -51 196 -152 226 -268 42
-166 -48 -341 -222 -427 -65 -32 -84 -36 -148 -36 -242 0 -441 262 -366 482
44 132 136 225 265 268 63 20 180 12 245 -19z"/>
<path d="M2480 1740 l0 -630 125 0 125 0 0 308 c0 459 13 528 111 617 119 107
270 109 384 4 23 -22 52 -39 63 -39 12 0 56 28 99 63 101 82 103 96 27 166
-107 98 -223 141 -378 141 -108 0 -175 -14 -244 -49 -49 -25 -62 -21 -62 20
l0 29 -125 0 -125 0 0 -630z"/>
<path d="M4150 2356 c-170 -47 -308 -159 -389 -316 -58 -112 -71 -166 -71
-299 0 -212 45 -326 180 -461 138 -139 255 -185 465 -184 103 1 131 5 199 28
43 15 98 38 121 51 23 14 45 25 48 25 4 0 7 -20 7 -45 l0 -45 131 0 131 0 -4
378 c-4 326 -7 384 -22 432 -70 216 -242 382 -451 435 -72 18 -280 19 -345 1z
m324 -275 c173 -85 272 -283 221 -442 -36 -113 -120 -209 -223 -257 -49 -23
-70 -27 -147 -27 -82 0 -97 3 -157 33 -155 76 -250 253 -219 405 17 83 51 146
111 206 121 121 273 151 414 82z"/>
<path d="M9605 2351 c-99 -28 -184 -80 -265 -161 -79 -79 -122 -149 -161 -260
-29 -84 -31 -279 -5 -379 63 -235 271 -418 513 -452 146 -21 285 2 415 67 37
19 70 34 73 34 3 0 5 -20 5 -45 l0 -45 131 0 131 0 -5 368 c-5 401 -8 425 -69
547 -81 164 -229 284 -405 330 -80 21 -280 19 -358 -4z m318 -260 c67 -26 162
-109 201 -176 38 -63 59 -157 51 -220 -15 -122 -113 -253 -232 -311 -50 -25
-70 -29 -148 -29 -77 0 -98 4 -148 27 -31 15 -82 50 -112 79 -179 169 -161
428 39 579 106 80 227 98 349 51z"/>
<path d="M740 1029 c0 -235 170 -455 419 -543 76 -26 99 -30 201 -30 127 0
192 14 295 66 200 100 314 272 340 511 l6 57 -124 0 -123 0 -11 -58 c-24 -128
-106 -238 -221 -294 -60 -30 -75 -33 -157 -33 -82 0 -97 3 -157 33 -115 56
-197 166 -221 294 l-11 58 -118 0 -118 0 0 -61z"/>
</g>
</svg>
