<?xml version="1.0" standalone="no"?>
<!DOCTYPE svg PUBLIC "-//W3C//DTD SVG 20010904//EN"
 "http://www.w3.org/TR/2001/REC-SVG-20010904/DTD/svg10.dtd">
<svg version="1.0" xmlns="http://www.w3.org/2000/svg"
 width="400.000000pt" height="400.000000pt" viewBox="0 0 400.000000 400.000000"
 preserveAspectRatio="xMidYMid meet">

<g transform="translate(0.000000,400.000000) scale(0.100000,-0.100000)"
fill="#000000" stroke="none">
<path d="M2045 3720 c-313 -8 -351 -14 -512 -90 -298 -139 -508 -374 -614
-687 -41 -121 -52 -219 -47 -406 4 -159 5 -164 47 -289 83 -245 214 -426 416
-576 87 -64 265 -147 380 -178 122 -32 327 -43 457 -24 416 61 776 366 911
772 44 132 50 183 44 390 -6 227 -18 280 -103 457 -29 62 -54 115 -54 117 0 2
29 4 65 4 l65 0 0 260 0 260 -387 -2 c-214 -1 -514 -5 -668 -8z m89 -525 c219
-46 404 -227 461 -450 19 -76 19 -222 0 -304 -32 -135 -128 -270 -252 -355
-237 -162 -566 -134 -764 64 -69 69 -122 149 -156 238 -21 54 -27 90 -31 184
-4 106 -2 126 21 201 66 211 235 370 447 422 74 18 190 18 274 0z"/>
<path d="M860 1367 c0 -18 7 -76 16 -128 95 -558 524 -943 1075 -966 323 -14
592 85 826 302 206 191 335 458 359 744 l7 81 -264 -2 -264 -3 -6 -70 c-16
-170 -120 -332 -281 -440 -179 -118 -433 -126 -624 -20 -166 93 -297 286 -313
460 l-6 70 -262 3 -263 2 0 -33z"/>
</g>
</svg>
