<?xml version="1.0" standalone="no"?>
<!DOCTYPE svg PUBLIC "-//W3C//DTD SVG 20010904//EN"
 "http://www.w3.org/TR/2001/REC-SVG-20010904/DTD/svg10.dtd">
<svg version="1.0" xmlns="http://www.w3.org/2000/svg"
 width="1599.000000pt" height="453.000000pt" viewBox="0 0 1599.000000 453.000000"
 preserveAspectRatio="xMidYMid meet">

<g transform="translate(0.000000,453.000000) scale(0.100000,-0.100000)"
fill="#000000" stroke="none">
<path d="M0 2265 l0 -2265 7995 0 7995 0 0 2265 0 2265 -7995 0 -7995 0 0
-2265z m9060 1176 l0 -590 44 25 c135 75 328 103 480 70 202 -45 381 -185 469
-366 75 -153 77 -176 77 -730 l0 -480 -155 0 -155 0 0 454 c0 264 -4 476 -10
507 -23 124 -100 223 -218 281 -60 30 -75 33 -152 32 -155 -1 -275 -75 -342
-212 l-33 -67 -3 -497 -3 -498 -154 0 -155 0 0 1330 0 1330 155 0 155 0 0
-589z m4750 -32 l0 -611 33 21 c62 41 163 89 237 113 64 20 96 23 220 23 124
0 156 -4 220 -24 267 -83 458 -274 542 -541 20 -64 23 -96 23 -220 0 -124 -3
-156 -23 -220 -84 -267 -275 -458 -542 -541 -64 -20 -96 -24 -220 -24 -124 0
-156 3 -220 23 -278 87 -474 289 -552 568 -22 79 -22 85 -26 1062 l-3 982 155
0 156 0 0 -611z m-2860 -704 l0 -1305 -155 0 -155 0 0 1305 0 1305 155 0 155
0 0 -1305z m-3255 235 c284 -89 497 -321 556 -605 23 -110 24 -185 4 -299 -51
-294 -269 -536 -565 -628 -63 -19 -97 -23 -215 -23 -119 0 -151 4 -215 23 -74
24 -175 72 -237 113 l-33 21 0 -616 0 -616 -155 0 -155 0 0 988 c0 952 1 992
20 1068 72 290 312 523 605 588 101 23 296 16 390 -14z m-5225 -160 l0 -180
-49 0 -49 0 39 -80 c72 -146 98 -335 68 -496 -44 -238 -216 -459 -440 -564
-204 -95 -464 -95 -668 0 -277 130 -451 404 -451 709 0 178 42 314 141 457
112 161 284 275 484 319 44 10 174 13 493 14 l432 1 0 -180z m940 124 c0 -31
3 -54 8 -52 4 2 36 18 71 36 250 131 571 80 779 -124 39 -39 72 -75 72 -81 0
-9 -224 -193 -235 -193 -3 0 -19 15 -36 34 -44 50 -116 93 -189 112 -216 55
-431 -96 -461 -323 -4 -37 -8 -263 -9 -501 l0 -433 -152 3 -153 3 -3 788 -2
787 155 0 155 0 0 -56z m2215 26 c282 -90 479 -293 556 -575 21 -76 23 -105
27 -527 l4 -448 -161 0 -161 0 0 71 0 71 -32 -21 c-132 -87 -264 -131 -414
-138 -246 -12 -451 71 -622 251 -146 155 -214 326 -215 541 -1 149 17 223 85
363 104 213 309 374 543 426 102 23 297 16 390 -14z m6830 0 c321 -102 537
-361 575 -688 5 -48 10 -261 10 -474 l0 -388 -160 0 -160 0 0 71 0 71 -32 -21
c-132 -87 -264 -131 -414 -138 -250 -12 -455 73 -631 261 -137 147 -205 321
-206 531 -1 149 17 223 85 363 104 213 309 374 543 426 102 23 297 16 390 -14z
m-11227 -1657 c30 -191 169 -347 351 -395 281 -73 558 108 603 395 l13 77 149
0 149 0 -6 -77 c-26 -333 -290 -624 -627 -693 -52 -11 -122 -20 -155 -20 -33
0 -103 9 -155 20 -244 50 -455 217 -561 443 -37 80 -69 206 -69 274 l0 53 148
0 147 0 13 -77z"/>
<path d="M14186 2634 c-137 -33 -259 -133 -324 -263 -37 -74 -37 -76 -37 -200
0 -125 0 -127 37 -201 145 -297 531 -370 767 -145 194 185 201 481 14 676
-116 122 -291 173 -457 133z"/>
<path d="M7375 2648 c-170 -32 -325 -180 -371 -352 -88 -330 210 -657 546
-597 173 31 321 158 381 327 29 82 29 216 0 298 -82 233 -317 370 -556 324z"/>
<path d="M1579 2622 c-306 -80 -454 -444 -289 -715 87 -144 250 -237 415 -237
214 0 413 153 467 359 94 362 -231 687 -593 593z"/>
<path d="M5300 2636 c-119 -25 -234 -106 -302 -210 -172 -266 -49 -624 250
-727 265 -91 554 68 627 346 55 214 -56 450 -259 550 -109 54 -202 66 -316 41z"/>
<path d="M12130 2636 c-119 -25 -234 -106 -302 -210 -172 -266 -49 -624 250
-727 265 -91 554 68 627 346 55 214 -56 450 -259 550 -109 54 -202 66 -316 41z"/>
</g>
</svg>
