<?xml version="1.0" standalone="no"?>
<!DOCTYPE svg PUBLIC "-//W3C//DTD SVG 20010904//EN"
 "http://www.w3.org/TR/2001/REC-SVG-20010904/DTD/svg10.dtd">
<svg version="1.0" xmlns="http://www.w3.org/2000/svg"
 width="1000.000000pt" height="1000.000000pt" viewBox="0 0 1000.000000 1000.000000"
 preserveAspectRatio="xMidYMid meet">

<g transform="translate(0.000000,1000.000000) scale(0.100000,-0.100000)"
fill="#000000" stroke="none">
<path d="M4815 6335 c-329 -72 -588 -321 -676 -650 -29 -105 -32 -316 -6 -419
68 -272 236 -482 480 -601 248 -120 541 -119 783 3 232 117 392 312 466 569
19 66 23 101 22 228 -1 178 -19 261 -89 398 l-44 87 54 0 55 0 0 200 0 200
-492 -1 c-369 -1 -508 -4 -553 -14z m271 -396 c229 -42 394 -240 394 -474 0
-143 -48 -253 -155 -354 -187 -177 -490 -169 -667 17 -180 188 -186 468 -14
659 113 126 277 182 442 152z"/>
<path d="M4110 4501 c0 -15 7 -67 15 -114 76 -434 438 -740 875 -739 235 0
434 77 604 234 161 148 265 357 282 570 l7 78 -207 0 -206 0 0 -39 c0 -22 -9
-67 -19 -100 -69 -223 -307 -371 -533 -333 -100 17 -187 60 -257 127 -86 82
-151 216 -151 313 l0 32 -205 0 -205 0 0 -29z"/>
</g>
</svg>
